HIERARCHY
ROOT Hips
{
	OFFSET 0.000000 0.000000 0.000000
	CHANNELS 6 Xposition Yposition Zposition Xrotation Yrotation Zrotation
	JOINT LeftUpLeg_virtual
	{
		OFFSET 0.000000 0.000000 0.000000
		CHANNELS 3 Xrotation Yrotation Zrotation
		JOINT LeftUpLeg
		{
			OFFSET 13.026900 -6.336304 -1.092800
			CHANNELS 3 Xrotation Yrotation Zrotation
			JOINT LeftLeg
			{
				OFFSET 0.524474 -46.096886 9.782700
				CHANNELS 3 Xrotation Yrotation Zrotation
				JOINT LeftFoot
				{
					OFFSET -0.524474 -53.427422 -12.948200
					CHANNELS 3 Xrotation Yrotation Zrotation
					JOINT LeftToeBase
					{
						OFFSET 0.192200 -14.009700 16.364100
						CHANNELS 3 Xrotation Yrotation Zrotation
						JOINT LeftToe_End
						{
							OFFSET -1.784700 -0.561700 9.474800
							CHANNELS 3 Xrotation Yrotation Zrotation
							End Site
							{
								OFFSET 0 0 0
							}
						}
					}
				}
			}
		}
	}
	JOINT RightUpLeg_virtual
	{
		OFFSET 0.000000 0.000000 0.000000
		CHANNELS 3 Xrotation Yrotation Zrotation
		JOINT RightUpLeg
		{
			OFFSET -12.883000 -6.336304 -1.092800
			CHANNELS 3 Xrotation Yrotation Zrotation
			JOINT RightLeg
			{
				OFFSET -0.524587 -46.096825 9.782800
				CHANNELS 3 Xrotation Yrotation Zrotation
				JOINT RightFoot
				{
					OFFSET 0.524587 -53.427383 -12.948300
					CHANNELS 3 Xrotation Yrotation Zrotation
					JOINT RightToeBase
					{
						OFFSET -0.192200 -14.009700 16.364100
						CHANNELS 3 Xrotation Yrotation Zrotation
						JOINT RightToe_End
						{
							OFFSET 1.784700 -0.561700 9.474800
							CHANNELS 3 Xrotation Yrotation Zrotation
							End Site
							{
								OFFSET 0 0 0
							}
						}
					}
				}
			}
		}
	}
	JOINT Spine_virtual
	{
		OFFSET 0.000000 0.000000 0.000000
		CHANNELS 3 Xrotation Yrotation Zrotation
		JOINT Spine
		{
			OFFSET 0.072000 7.257294 -0.789700
			CHANNELS 3 Xrotation Yrotation Zrotation
			JOINT Spine1
			{
				OFFSET 0.000000 12.508769 -0.658067
				CHANNELS 3 Xrotation Yrotation Zrotation
				JOINT Spine1_split
				{
					OFFSET 0.000000 12.508769 -0.658067
					CHANNELS 3 Xrotation Yrotation Zrotation
					JOINT Spine2
					{
						OFFSET 0.000000 12.508769 -0.658067
						CHANNELS 3 Xrotation Yrotation Zrotation
						JOINT Neck_virtual
						{
							OFFSET 0.000000 0.000000 0.000000
							CHANNELS 3 Xrotation Yrotation Zrotation
							JOINT Neck
							{
								OFFSET 0.000000 14.033295 7.520400
								CHANNELS 3 Xrotation Yrotation Zrotation
								JOINT Head
								{
									OFFSET 0.000000 8.198502 5.703100
									CHANNELS 3 Xrotation Yrotation Zrotation
									JOINT HeadTop_End
									{
										OFFSET 0.000000 17.760803 13.332701
										CHANNELS 3 Xrotation Yrotation Zrotation
										End Site
										{
											OFFSET 0 0 0
										}
									}
								}
							}
						}
						JOINT LeftShoulder_virtual
						{
							OFFSET 0.000000 0.000000 0.000000
							CHANNELS 3 Xrotation Yrotation Zrotation
							JOINT LeftShoulder
							{
								OFFSET 6.292450 5.785301 -0.669000
								CHANNELS 3 Xrotation Yrotation Zrotation
								JOINT LeftShoulder_split
								{
									OFFSET 6.292450 5.785301 -0.669000
									CHANNELS 3 Xrotation Yrotation Zrotation
									JOINT LeftArm
									{
										OFFSET 13.907140 -6.093903 1.965100
										CHANNELS 3 Xrotation Yrotation Zrotation
										JOINT LeftForeArm
										{
											OFFSET 34.140198 0.000000 0.000000
											CHANNELS 3 Xrotation Yrotation Zrotation
											JOINT LeftHand
											{
												OFFSET 40.960209 0.000000 0.000000
												CHANNELS 3 Xrotation Yrotation Zrotation
												End Site
												{
													OFFSET 0 0 0
												}
											}
										}
									}
								}
							}
						}
						JOINT RightShoulder_virtual
						{
							OFFSET 0.000000 0.000000 0.000000
							CHANNELS 3 Xrotation Yrotation Zrotation
							JOINT RightShoulder
							{
								OFFSET -6.292450 5.785301 -0.669000
								CHANNELS 3 Xrotation Yrotation Zrotation
								JOINT RightShoulder_split
								{
									OFFSET -6.292450 5.785301 -0.669000
									CHANNELS 3 Xrotation Yrotation Zrotation
									JOINT RightArm
									{
										OFFSET -13.907140 -6.093903 1.965100
										CHANNELS 3 Xrotation Yrotation Zrotation
										JOINT RightForeArm
										{
											OFFSET -34.140198 0.000000 0.000000
											CHANNELS 3 Xrotation Yrotation Zrotation
											JOINT RightHand
											{
												OFFSET -40.960209 0.000000 0.000000
												CHANNELS 3 Xrotation Yrotation Zrotation
												End Site
												{
													OFFSET 0 0 0
												}
											}
										}
									}
								}
							}
						}
					}
				}
			}
		}
	}
}
MOTION
Frames: 10
Frame Time: 0.03333333
6.838943 101.172295 -2.603825 0.000000 0.000000 0.000000 159.564502 -81.262387 169.006693 -14.435677 17.656280 16.120737 43.230183 9.069390 -7.907325 -16.315254 18.246891 -19.421114 -1.594036 -0.000027 0.000003 0.000000 0.000000 0.000000 159.564502 -81.262387 169.006693 -47.287872 12.679072 -13.889387 43.874823 -3.429693 -8.345873 -4.795050 21.817747 13.308058 -0.013002 -0.000006 -0.000001 0.000000 0.000000 0.000000 159.564502 -81.262387 169.006693 27.448819 -10.971697 9.376185 23.161359 -3.493219 1.352682 0.000000 0.000000 0.000000 0.000000 0.000000 0.000000 23.166762 -3.536858 1.303655 5.566804 -1.498436 -2.573740 -27.602628 15.614104 -15.598453 0.000000 0.000000 0.000000 23.166762 -3.536858 1.303655 -0.582109 -10.753510 13.082374 0.000000 0.000000 0.000000 15.295877 14.965061 -73.078940 0.000019 -77.278413 0.000029 0.000000 0.000000 0.000000 23.166762 -3.536858 1.303655 6.979281 20.126735 14.548993 0.000000 0.000000 0.000000 -57.790620 57.846805 49.544270 179.999937 71.252274 -179.999923 0.000000 0.000000 0.000000 
6.628041 100.679031 -3.210117 0.000000 0.000000 0.000000 162.829278 -85.270923 172.692454 -14.571124 17.285457 16.600951 43.943535 8.941113 -7.119703 -16.137036 14.724240 -19.868356 -1.594036 -0.000027 0.000004 0.000000 0.000000 0.000000 162.829278 -85.270923 172.692454 -45.337215 12.597017 -15.783618 46.130254 -3.447897 -8.198460 -6.383514 18.985040 13.668540 -0.013002 -0.000005 -0.000002 0.000000 0.000000 0.000000 162.829278 -85.270923 172.692454 26.976706 -10.914997 8.946974 22.828265 -3.476726 1.160359 0.000000 0.000000 0.000000 0.000000 0.000000 0.000000 22.831241 -3.513600 1.117195 5.617717 -1.103828 -3.287040 -24.500426 16.764407 -15.915160 0.000000 0.000000 0.000000 22.831241 -3.513600 1.117195 -0.574389 -9.850080 11.644915 0.000000 0.000000 0.000000 7.953495 23.817322 -68.381484 0.001352 -83.763063 0.001285 0.000000 0.000000 0.000000 22.831241 -3.513600 1.117195 6.747075 21.058549 15.296852 0.000000 0.000000 0.000000 -49.806815 49.425868 42.155897 180.000005 69.219029 -179.999991 0.000000 0.000000 0.000000 
6.471042 100.359711 -3.792961 0.000000 0.000000 0.000000 -46.790163 -89.463682 -36.677996 -15.271782 16.565528 17.253546 44.534459 8.853883 -6.073794 -15.769095 10.288301 -20.180842 -1.594036 -0.000031 0.000004 0.000000 0.000000 0.000000 -46.790163 -89.463682 -36.677996 -42.572156 11.971446 -17.952469 47.972322 -3.538806 -8.094391 -7.957236 15.290893 14.201007 -0.013002 -0.000006 -0.000001 0.000000 0.000000 0.000000 -46.790163 -89.463682 -36.677996 26.053354 -10.876540 8.639262 22.258176 -3.473021 1.011012 0.000000 0.000000 0.000000 0.000000 0.000000 0.000000 22.258232 -3.504549 0.974824 5.582352 -0.609714 -3.490650 -21.431938 18.334343 -15.324479 0.000000 0.000000 0.000000 22.258232 -3.504549 0.974824 -0.520526 -9.531909 10.234620 0.000000 0.000000 0.000000 1.463535 28.835467 -64.955072 -179.996576 -87.420404 -179.996767 0.000000 0.000000 0.000000 22.258232 -3.504549 0.974824 6.665664 21.639404 15.541460 0.000000 0.000000 0.000000 -46.863786 42.548356 39.774452 179.999991 68.187308 -179.999978 0.000000 0.000000 0.000000 
6.300675 100.187317 -4.308315 0.000000 0.000000 0.000000 -20.648027 -83.938640 -10.225428 -16.139394 15.824939 17.987501 44.880435 8.794222 -5.365497 -15.325968 5.277859 -20.185794 -1.594036 -0.000029 0.000004 0.000000 0.000000 0.000000 -20.648027 -83.938640 -10.225428 -39.462972 10.959732 -20.402625 49.410722 -3.678592 -7.717162 -9.400570 11.573315 14.670283 -0.013002 -0.000005 -0.000002 0.000000 0.000000 0.000000 -20.648027 -83.938640 -10.225428 24.750157 -11.000989 8.153012 21.504876 -3.561794 0.743015 0.000000 0.000000 0.000000 0.000000 0.000000 0.000000 21.500273 -3.591407 0.715264 5.405991 0.051949 -3.528792 -18.138629 20.379770 -14.230574 0.000000 0.000000 0.000000 21.500273 -3.591407 0.715264 -0.460468 -9.394468 9.008915 0.000000 0.000000 0.000000 -1.728996 29.114057 -63.687102 179.999827 -78.356203 179.999814 0.000000 0.000000 0.000000 21.500273 -3.591407 0.715264 6.805437 22.098821 15.068224 0.000000 0.000000 0.000000 -46.646490 38.030370 40.216475 -179.999896 68.071919 179.999896 0.000000 0.000000 0.000000 
6.107577 100.023567 -4.704456 0.000000 0.000000 0.000000 -18.107943 -78.476141 -7.414629 -17.352391 15.164294 19.093707 45.277508 8.751625 -5.352040 -14.956166 -0.147397 -19.848866 -1.594035 -0.000029 0.000004 0.000000 0.000000 0.000000 -18.107943 -78.476141 -7.414629 -36.603400 9.577123 -22.636919 50.549684 -3.837070 -7.390362 -10.699492 8.034527 15.168329 -0.013002 -0.000005 -0.000002 0.000000 0.000000 0.000000 -18.107943 -78.476141 -7.414629 22.994073 -11.022689 7.341858 20.574261 -3.614490 0.283389 0.000000 0.000000 0.000000 0.000000 0.000000 0.000000 20.564154 -3.644918 0.264572 5.153305 0.800718 -3.364205 -14.890786 23.039186 -12.855541 0.000000 0.000000 0.000000 20.564154 -3.644918 0.264572 -0.430174 -8.858784 8.302936 0.000000 0.000000 0.000000 -1.022128 24.841837 -64.349869 179.999909 -71.786784 179.999923 0.000000 0.000000 0.000000 20.564154 -3.644918 0.264572 7.072055 22.585253 14.200020 0.000000 0.000000 0.000000 -47.805928 35.661169 41.570833 -179.999937 68.446473 179.999937 0.000000 0.000000 0.000000 
5.869802 99.734085 -4.875679 0.000000 0.000000 0.000000 -15.445143 -73.160403 -4.961989 -19.487339 14.360555 20.412206 46.116802 8.744356 -5.160551 -14.812898 -5.458286 -19.549898 -1.594036 -0.000026 0.000004 0.000000 0.000000 0.000000 -15.445143 -73.160403 -4.961989 -34.302033 7.757724 -24.226264 51.472876 -4.100382 -7.233975 -11.892426 4.600978 15.828863 -0.013002 -0.000004 -0.000002 0.000000 0.000000 0.000000 -15.445143 -73.160403 -4.961989 20.746531 -10.237755 6.571966 19.219345 -3.366892 -0.109729 0.000000 0.000000 0.000000 0.000000 0.000000 0.000000 19.206014 -3.397629 -0.121691 4.870375 1.529211 -2.842630 -11.879536 25.097472 -11.465113 0.000000 0.000000 0.000000 19.206014 -3.397629 -0.121691 -0.427949 -7.920882 7.360566 0.000000 0.000000 0.000000 0.963456 16.907126 -65.113040 179.999978 -67.931019 179.999937 0.000000 0.000000 0.000000 19.206014 -3.397629 -0.121691 7.361727 22.574812 12.882690 0.000000 0.000000 0.000000 -49.792875 34.384275 43.331181 179.999991 69.037592 -179.999991 0.000000 0.000000 0.000000 
5.537064 99.299721 -4.777256 0.000000 0.000000 0.000000 -12.895787 -68.009368 -3.096365 -22.498809 13.466374 20.708719 47.133763 7.076238 -3.454426 -14.842973 -8.082234 -19.074779 -1.594036 -0.000027 0.000004 0.000000 0.000000 0.000000 -12.895787 -68.009368 -3.096365 -32.453302 5.612709 -25.273532 52.254072 -4.525731 -7.178489 -13.049228 1.411784 16.674119 -0.013002 -0.000004 -0.000002 0.000000 0.000000 0.000000 -12.895787 -68.009368 -3.096365 18.352075 -8.400964 5.967564 17.403780 -2.770852 -0.318710 0.000000 0.000000 0.000000 0.000000 0.000000 0.000000 17.390770 -2.799884 -0.326369 4.486488 2.270941 -1.925394 -9.287336 25.712105 -10.129687 0.000000 0.000000 0.000000 17.390770 -2.799884 -0.326369 -0.406674 -6.762231 5.492135 0.000000 0.000000 0.000000 1.854122 7.934869 -65.271364 -179.999991 -65.659893 179.999991 0.000000 0.000000 0.000000 17.390770 -2.799884 -0.326369 7.578465 22.014531 10.994002 0.000000 0.000000 0.000000 -51.910964 33.170728 45.580277 -179.999923 69.361056 179.999909 0.000000 0.000000 0.000000 
5.113008 98.768837 -4.481979 0.000000 0.000000 0.000000 -11.121401 -63.411258 -1.958730 -25.272067 12.453942 19.950395 48.227276 3.925856 -1.399214 -14.933596 -8.012705 -18.160283 -1.594036 -0.000031 0.000003 0.000000 0.000000 0.000000 -11.121401 -63.411258 -1.958730 -30.957747 3.469544 -26.196723 52.993416 -5.073509 -7.231546 -14.187177 -1.098303 17.629015 -0.013002 -0.000005 -0.000001 0.000000 0.000000 0.000000 -11.121401 -63.411258 -1.958730 16.306633 -5.762634 5.029871 15.440578 -1.938267 -0.598001 0.000000 0.000000 0.000000 0.000000 0.000000 0.000000 15.430263 -1.964561 -0.601722 3.859760 3.099068 -0.618566 -7.405213 25.400886 -8.475798 0.000000 0.000000 0.000000 15.430263 -1.964561 -0.601722 -0.329905 -5.321381 3.102602 0.000000 0.000000 0.000000 0.807348 1.189623 -65.371228 179.999964 -64.716746 179.999950 0.000000 0.000000 0.000000 15.430263 -1.964561 -0.601722 7.643281 21.113899 8.738982 0.000000 0.000000 0.000000 -53.603827 31.926326 48.461124 179.999950 69.019772 -179.999950 0.000000 0.000000 0.000000 
4.643144 98.060257 -4.068150 0.000000 0.000000 0.000000 -10.047598 -59.869921 -1.232762 -27.317898 11.321412 19.191623 49.674310 1.912471 -0.152985 -15.340909 -8.093111 -17.586766 -1.594036 -0.000026 0.000004 0.000000 0.000000 0.000000 -10.047598 -59.869921 -1.232762 -30.086570 1.623540 -27.122770 53.997215 -5.052504 -7.371442 -15.339401 -3.160506 18.341160 -0.013002 -0.000005 -0.000001 0.000000 0.000000 0.000000 -10.047598 -59.869921 -1.232762 14.689505 -2.390699 3.419717 13.434762 -0.860440 -1.102789 0.000000 0.000000 0.000000 0.000000 0.000000 0.000000 13.428928 -0.882377 -1.101686 3.070339 3.988038 0.965825 -6.018159 24.371729 -6.294611 0.000000 0.000000 0.000000 13.428928 -0.882377 -1.101686 -0.234620 -3.576978 0.962658 0.000000 0.000000 0.000000 -3.113429 -2.233271 -65.774196 179.999991 -64.844955 179.999978 0.000000 0.000000 0.000000 13.428928 -0.882377 -1.101686 7.513532 19.864490 6.212172 0.000000 0.000000 0.000000 -54.597370 30.262103 52.127638 -179.999978 68.427997 179.999964 0.000000 0.000000 0.000000 
4.148243 97.248322 -3.577141 0.000000 0.000000 0.000000 -8.997269 -57.307193 -0.502069 -29.081221 10.246050 18.706981 51.295834 0.523833 0.512708 -15.985330 -8.125700 -17.182797 -1.594036 -0.000027 0.000004 0.000000 0.000000 0.000000 -8.997269 -57.307193 -0.502069 -29.864630 0.142250 -28.066654 55.081719 -5.228045 -7.469556 -16.464485 -4.163243 19.056527 -0.013002 -0.000005 -0.000001 0.000000 0.000000 0.000000 -8.997269 -57.307193 -0.502069 13.115929 1.464365 1.599316 11.236300 0.420773 -1.611583 0.000000 0.000000 0.000000 0.000000 0.000000 0.000000 11.235812 0.405503 -1.604819 2.538242 4.840473 2.451372 -4.520120 22.488615 -4.121498 0.000000 0.000000 0.000000 11.235812 0.405503 -1.604819 -0.141989 -1.899008 -0.781637 0.000000 0.000000 0.000000 -10.208028 -3.322879 -66.059513 179.999991 -65.781811 -179.999991 0.000000 0.000000 0.000000 11.235812 0.405503 -1.604819 7.175013 18.529033 3.511699 0.000000 0.000000 0.000000 -54.369757 27.846719 56.003668 -179.999896 68.276292 179.999896 0.000000 0.000000 0.000000 
